<svg width="18" height="20" viewBox="0 0 18 20" fill="none" xmlns="http://www.w3.org/2000/svg">
<path fill-rule="evenodd" clip-rule="evenodd" d="M0.0447414 6C0.383977 3.39575 2.61097 1.38462 5.30769 1.38462H12.6923C15.389 1.38462 17.616 3.39575 17.9553 6H0.0447414ZM0 7.38462V14.0769C0 17.0083 2.37634 19.3846 5.30769 19.3846H12.6923C15.6237 19.3846 18 17.0083 18 14.0769V7.38462H0ZM3.92308 11.0769C3.54073 11.0769 3.23077 10.767 3.23077 10.3846C3.23077 10.0023 3.54073 9.69231 3.92308 9.69231H4.84615C5.22851 9.69231 5.53846 10.0023 5.53846 10.3846C5.53846 10.767 5.22851 11.0769 4.84615 11.0769H3.92308ZM7.84615 10.3846C7.84615 10.767 8.15611 11.0769 8.53846 11.0769H9.46154C9.84389 11.0769 10.1538 10.767 10.1538 10.3846C10.1538 10.0023 9.84389 9.69231 9.46154 9.69231H8.53846C8.15611 9.69231 7.84615 10.0023 7.84615 10.3846ZM13.1538 11.0769C12.7715 11.0769 12.4615 10.767 12.4615 10.3846C12.4615 10.0023 12.7715 9.69231 13.1538 9.69231H14.0769C14.4593 9.69231 14.7692 10.0023 14.7692 10.3846C14.7692 10.767 14.4593 11.0769 14.0769 11.0769H13.1538ZM3.23077 14.0769C3.23077 14.4593 3.54073 14.7692 3.92308 14.7692H4.84615C5.22851 14.7692 5.53846 14.4593 5.53846 14.0769C5.53846 13.6946 5.22851 13.3846 4.84615 13.3846H3.92308C3.54073 13.3846 3.23077 13.6946 3.23077 14.0769ZM8.53846 14.7692C8.15611 14.7692 7.84615 14.4593 7.84615 14.0769C7.84615 13.6946 8.15611 13.3846 8.53846 13.3846H9.46154C9.84389 13.3846 10.1538 13.6946 10.1538 14.0769C10.1538 14.4593 9.84389 14.7692 9.46154 14.7692H8.53846ZM12.4615 14.0769C12.4615 14.4593 12.7715 14.7692 13.1538 14.7692H14.0769C14.4593 14.7692 14.7692 14.4593 14.7692 14.0769C14.7692 13.6946 14.4593 13.3846 14.0769 13.3846H13.1538C12.7715 13.3846 12.4615 13.6946 12.4615 14.0769ZM13.1538 0C12.7715 -1.67131e-08 12.4615 0.309957 12.4615 0.692308V3.46154C12.4615 3.84389 12.7715 4.15385 13.1538 4.15385C13.5362 4.15385 13.8462 3.84389 13.8462 3.46154V0.692308C13.8462 0.309957 13.5362 1.67131e-08 13.1538 0ZM4.84615 0C4.4638 -1.67131e-08 4.15385 0.309957 4.15385 0.692308V3.46154C4.15385 3.84389 4.4638 4.15385 4.84615 4.15385C5.2285 4.15385 5.53846 3.84389 5.53846 3.46154V0.692308C5.53846 0.309957 5.2285 1.67131e-08 4.84615 0Z" fill="url(#paint0_linear_261_5248)"/>
<defs>
<linearGradient id="paint0_linear_261_5248" x1="12.735" y1="13.4775" x2="17.73" y2="13.4775" gradientUnits="userSpaceOnUse">
<stop stop-color="#4D6DCD"/>
<stop offset="1" stop-color="#428AE3"/>
</linearGradient>
</defs>
</svg>
