<svg width="16" height="20" viewBox="0 0 16 20" fill="none" xmlns="http://www.w3.org/2000/svg">
<path d="M10.0484 2.00512C9.75358 1.13891 8.74825 0.588644 8.13627 1.26886C6.45418 3.13848 5.97467 5.8317 5.85185 7.59234C5.79252 8.44288 4.95311 8.95786 4.4912 8.24122C4.4278 8.14286 4.36686 8.03662 4.30972 7.92199C3.90089 7.1018 2.911 6.51979 2.25856 7.16336C0.864374 8.53857 0 10.4424 0 12.5C0 16.6421 3.48222 20 7.77778 20C12.0733 20 15.5556 16.6421 15.5556 12.5C15.5555 7.2811 11.2769 5.61499 10.0484 2.00512Z" fill="url(#paint0_linear_261_5384)"/>
<defs>
<linearGradient id="paint0_linear_261_5384" x1="2.12121" y1="10" x2="13.7879" y2="10" gradientUnits="userSpaceOnUse">
<stop stop-color="#4E6ECE"/>
<stop offset="1" stop-color="#4487E0"/>
</linearGradient>
</defs>
</svg>
