<svg width="20" height="18" viewBox="0 0 20 18" fill="none" xmlns="http://www.w3.org/2000/svg">
<path d="M12.25 9.5C12.25 8.25736 11.2426 7.25 10 7.25C8.75736 7.25 7.75 8.25736 7.75 9.5C7.75 10.7426 8.75736 11.75 10 11.75C11.2426 11.75 12.25 10.7426 12.25 9.5Z" fill="url(#paint0_linear_261_5144)"/>
<path fill-rule="evenodd" clip-rule="evenodd" d="M3.95645 3.5C1.77136 3.5 0 5.27136 0 7.45645V12.5C0 15.2614 2.23858 17.5 5 17.5H15C17.7614 17.5 20 15.2614 20 12.5V7.45645C20 5.27136 18.2286 3.5 16.0435 3.5C15.4105 3.5 14.8383 3.12272 14.5889 2.54083L14.2792 1.81824C13.8065 0.71519 12.7219 0 11.5218 0H8.47819C7.2781 0 6.19349 0.715192 5.72075 1.81824L5.41107 2.54083C5.16169 3.12272 4.58953 3.5 3.95645 3.5ZM10 5.75C12.0711 5.75 13.75 7.42893 13.75 9.5C13.75 11.5711 12.0711 13.25 10 13.25C7.92893 13.25 6.25 11.5711 6.25 9.5C6.25 7.42893 7.92893 5.75 10 5.75Z" fill="url(#paint1_linear_261_5144)"/>
<defs>
<linearGradient id="paint0_linear_261_5144" x1="14.15" y1="12.1672" x2="19.7" y2="12.1672" gradientUnits="userSpaceOnUse">
<stop stop-color="#4D6DCD"/>
<stop offset="1" stop-color="#428AE3"/>
</linearGradient>
<linearGradient id="paint1_linear_261_5144" x1="14.15" y1="12.1672" x2="19.7" y2="12.1672" gradientUnits="userSpaceOnUse">
<stop stop-color="#4D6DCD"/>
<stop offset="1" stop-color="#428AE3"/>
</linearGradient>
</defs>
</svg>
