<svg width="20" height="13" viewBox="0 0 20 13" fill="none" xmlns="http://www.w3.org/2000/svg">
<path d="M0 3.5C0 1.567 1.567 0 3.5 0H10.5C12.433 0 14 1.567 14 3.5V9.5C14 11.433 12.433 13 10.5 13H3.5C1.567 13 0 11.433 0 9.5V3.5Z" fill="url(#paint0_linear_261_5092)"/>
<path d="M14 5.16062L18.1162 2.3063C18.912 1.75446 20 2.324 20 3.29241V9.72546C20 10.6903 18.919 11.2607 18.1226 10.716L14 7.89637V5.16062Z" fill="url(#paint1_linear_261_5092)"/>
<defs>
<linearGradient id="paint0_linear_261_5092" x1="14.15" y1="9.03846" x2="19.7" y2="9.03846" gradientUnits="userSpaceOnUse">
<stop stop-color="#4D6DCD"/>
<stop offset="1" stop-color="#428AE3"/>
</linearGradient>
<linearGradient id="paint1_linear_261_5092" x1="14.15" y1="9.03846" x2="19.7" y2="9.03846" gradientUnits="userSpaceOnUse">
<stop stop-color="#4D6DCD"/>
<stop offset="1" stop-color="#428AE3"/>
</linearGradient>
</defs>
</svg>
